<svg width="4" height="2156" viewBox="0 0 4 2156" fill="none" xmlns="http://www.w3.org/2000/svg">
<path d="M0 9.86765C0 10.9722 0.89543 11.8676 2 11.8676C3.10457 11.8676 4 10.9722 4 9.86765H0ZM4 29.6029C4 28.4984 3.10457 27.6029 2 27.6029C0.89543 27.6029 0 28.4984 0 29.6029H4ZM0 49.3382C0 50.4428 0.89543 51.3382 2 51.3382C3.10457 51.3382 4 50.4428 4 49.3382H0ZM4 69.0735C4 67.969 3.10457 67.0735 2 67.0735C0.89543 67.0735 0 67.969 0 69.0735H4ZM0 88.8088C0 89.9134 0.89543 90.8088 2 90.8088C3.10457 90.8088 4 89.9134 4 88.8088H0ZM4 108.544C4 107.44 3.10457 106.544 2 106.544C0.89543 106.544 0 107.44 0 108.544H4ZM0 128.279C0 129.384 0.89543 130.279 2 130.279C3.10457 130.279 4 129.384 4 128.279H0ZM4 148.015C4 146.91 3.10457 146.015 2 146.015C0.89543 146.015 0 146.91 0 148.015H4ZM0 167.75C0 168.855 0.89543 169.75 2 169.75C3.10457 169.75 4 168.855 4 167.75H0ZM4 187.485C4 186.381 3.10457 185.485 2 185.485C0.89543 185.485 0 186.381 0 187.485H4ZM0 207.221C0 208.325 0.89543 209.221 2 209.221C3.10457 209.221 4 208.325 4 207.221H0ZM4 226.956C4 225.851 3.10457 224.956 2 224.956C0.89543 224.956 0 225.851 0 226.956H4ZM0 246.691C0 247.796 0.89543 248.691 2 248.691C3.10457 248.691 4 247.796 4 246.691H0ZM4 266.426C4 265.322 3.10457 264.426 2 264.426C0.89543 264.426 0 265.322 0 266.426H4ZM0 286.162C0 287.266 0.89543 288.162 2 288.162C3.10457 288.162 4 287.266 4 286.162H0ZM4 305.897C4 304.792 3.10457 303.897 2 303.897C0.89543 303.897 0 304.792 0 305.897H4ZM0 325.632C0 326.737 0.89543 327.632 2 327.632C3.10457 327.632 4 326.737 4 325.632H0ZM4 345.368C4 344.263 3.10457 343.368 2 343.368C0.89543 343.368 0 344.263 0 345.368H4ZM0 365.103C0 366.207 0.89543 367.103 2 367.103C3.10457 367.103 4 366.207 4 365.103H0ZM4 384.838C4 383.734 3.10457 382.838 2 382.838C0.89543 382.838 0 383.734 0 384.838H4ZM0 404.573C0 405.678 0.89543 406.573 2 406.573C3.10457 406.573 4 405.678 4 404.573H0ZM4 424.309C4 423.204 3.10457 422.309 2 422.309C0.89543 422.309 0 423.204 0 424.309H4ZM0 444.044C0 445.149 0.89543 446.044 2 446.044C3.10457 446.044 4 445.149 4 444.044H0ZM4 463.779C4 462.675 3.10457 461.779 2 461.779C0.89543 461.779 0 462.675 0 463.779H4ZM0 483.515C0 484.619 0.89543 485.515 2 485.515C3.10457 485.515 4 484.619 4 483.515H0ZM4 503.25C4 502.145 3.10457 501.25 2 501.25C0.89543 501.25 0 502.145 0 503.25H4ZM0 522.985C0 524.09 0.89543 524.985 2 524.985C3.10457 524.985 4 524.09 4 522.985H0ZM4 542.721C4 541.616 3.10457 540.721 2 540.721C0.89543 540.721 0 541.616 0 542.721H4ZM0 562.456C0 563.56 0.89543 564.456 2 564.456C3.10457 564.456 4 563.56 4 562.456H0ZM4 582.191C4 581.087 3.10457 580.191 2 580.191C0.89543 580.191 0 581.087 0 582.191H4ZM0 601.926C0 603.031 0.89543 603.926 2 603.926C3.10457 603.926 4 603.031 4 601.926H0ZM4 621.662C4 620.557 3.10457 619.662 2 619.662C0.89543 619.662 0 620.557 0 621.662H4ZM0 641.397C0 642.502 0.89543 643.397 2 643.397C3.10457 643.397 4 642.502 4 641.397H0ZM4 661.132C4 660.028 3.10457 659.132 2 659.132C0.89543 659.132 0 660.028 0 661.132H4ZM0 680.868C0 681.972 0.89543 682.868 2 682.868C3.10457 682.868 4 681.972 4 680.868H0ZM4 700.603C4 699.498 3.10457 698.603 2 698.603C0.89543 698.603 0 699.498 0 700.603H4ZM0 720.338C0 721.443 0.89543 722.338 2 722.338C3.10457 722.338 4 721.443 4 720.338H0ZM4 740.073C4 738.969 3.10457 738.073 2 738.073C0.89543 738.073 0 738.969 0 740.073H4ZM0 759.809C0 760.913 0.89543 761.809 2 761.809C3.10457 761.809 4 760.913 4 759.809H0ZM4 779.544C4 778.439 3.10457 777.544 2 777.544C0.89543 777.544 0 778.439 0 779.544H4ZM0 799.279C0 800.384 0.89543 801.279 2 801.279C3.10457 801.279 4 800.384 4 799.279H0ZM4 819.015C4 817.91 3.10457 817.015 2 817.015C0.89543 817.015 0 817.91 0 819.015H4ZM0 838.75C0 839.854 0.89543 840.75 2 840.75C3.10457 840.75 4 839.854 4 838.75H0ZM4 858.485C4 857.381 3.10457 856.485 2 856.485C0.89543 856.485 0 857.381 0 858.485H4ZM0 878.22C0 879.325 0.89543 880.22 2 880.22C3.10457 880.22 4 879.325 4 878.22H0ZM4 897.956C4 896.851 3.10457 895.956 2 895.956C0.89543 895.956 0 896.851 0 897.956H4ZM0 917.691C0 918.796 0.89543 919.691 2 919.691C3.10457 919.691 4 918.796 4 917.691H0ZM4 937.426C4 936.322 3.10457 935.426 2 935.426C0.89543 935.426 0 936.322 0 937.426H4ZM0 957.162C0 958.266 0.89543 959.162 2 959.162C3.10457 959.162 4 958.266 4 957.162H0ZM4 976.897C4 975.792 3.10457 974.897 2 974.897C0.89543 974.897 0 975.792 0 976.897H4ZM0 996.632C0 997.737 0.89543 998.632 2 998.632C3.10457 998.632 4 997.737 4 996.632H0ZM4 1016.37C4 1015.26 3.10457 1014.37 2 1014.37C0.89543 1014.37 0 1015.26 0 1016.37H4ZM0 1036.1C0 1037.21 0.89543 1038.1 2 1038.1C3.10457 1038.1 4 1037.21 4 1036.1H0ZM4 1055.84C4 1054.73 3.10457 1053.84 2 1053.84C0.89543 1053.84 0 1054.73 0 1055.84H4ZM0 1075.57C0 1076.68 0.89543 1077.57 2 1077.57C3.10457 1077.57 4 1076.68 4 1075.57H0ZM4 1095.31C4 1094.2 3.10457 1093.31 2 1093.31C0.89543 1093.31 0 1094.2 0 1095.31H4ZM0 1115.04C0 1116.15 0.89543 1117.04 2 1117.04C3.10457 1117.04 4 1116.15 4 1115.04H0ZM4 1134.78C4 1133.67 3.10457 1132.78 2 1132.78C0.89543 1132.78 0 1133.67 0 1134.78H4ZM0 1154.51C0 1155.62 0.89543 1156.51 2 1156.51C3.10457 1156.51 4 1155.62 4 1154.51H0ZM4 1174.25C4 1173.15 3.10457 1172.25 2 1172.25C0.89543 1172.25 0 1173.15 0 1174.25H4ZM0 1193.99C0 1195.09 0.89543 1195.99 2 1195.99C3.10457 1195.99 4 1195.09 4 1193.99H0ZM4 1213.72C4 1212.62 3.10457 1211.72 2 1211.72C0.89543 1211.72 0 1212.62 0 1213.72H4ZM0 1233.46C0 1234.56 0.89543 1235.46 2 1235.46C3.10457 1235.46 4 1234.56 4 1233.46H0ZM4 1253.19C4 1252.09 3.10457 1251.19 2 1251.19C0.89543 1251.19 0 1252.09 0 1253.19H4ZM0 1272.93C0 1274.03 0.89543 1274.93 2 1274.93C3.10457 1274.93 4 1274.03 4 1272.93H0ZM4 1292.66C4 1291.56 3.10457 1290.66 2 1290.66C0.89543 1290.66 0 1291.56 0 1292.66H4ZM0 1312.4C0 1313.5 0.89543 1314.4 2 1314.4C3.10457 1314.4 4 1313.5 4 1312.4H0ZM4 1332.13C4 1331.03 3.10457 1330.13 2 1330.13C0.89543 1330.13 0 1331.03 0 1332.13H4ZM0 1352.18C0 1353.28 0.89543 1354.18 2 1354.18C3.10457 1354.18 4 1353.28 4 1352.18H0ZM4 1372.53C4 1371.42 3.10457 1370.53 2 1370.53C0.89543 1370.53 0 1371.42 0 1372.53H4ZM0 1392.88C0 1393.98 0.89543 1394.88 2 1394.88C3.10457 1394.88 4 1393.98 4 1392.88H0ZM4 1413.22C4 1412.12 3.10457 1411.22 2 1411.22C0.89543 1411.22 0 1412.12 0 1413.22H4ZM0 1433.57C0 1434.68 0.89543 1435.57 2 1435.57C3.10457 1435.57 4 1434.68 4 1433.57H0ZM4 1453.93C4 1452.82 3.10457 1451.93 2 1451.93C0.89543 1451.93 0 1452.82 0 1453.93H4ZM0 1474.28C0 1475.38 0.89543 1476.28 2 1476.28C3.10457 1476.28 4 1475.38 4 1474.28H0ZM4 1494.62C4 1493.52 3.10457 1492.62 2 1492.62C0.89543 1492.62 0 1493.52 0 1494.62H4ZM0 1514.97C0 1516.08 0.89543 1516.97 2 1516.97C3.10457 1516.97 4 1516.08 4 1514.97H0ZM4 1535.32C4 1534.22 3.10457 1533.32 2 1533.32C0.89543 1533.32 0 1534.22 0 1535.32H4ZM0 1555.68C0 1556.78 0.89543 1557.68 2 1557.68C3.10457 1557.68 4 1556.78 4 1555.68H0ZM4 1576.03C4 1574.92 3.10457 1574.03 2 1574.03C0.89543 1574.03 0 1574.92 0 1576.03H4ZM0 1596.38C0 1597.48 0.89543 1598.38 2 1598.38C3.10457 1598.38 4 1597.48 4 1596.38H0ZM4 1616.72C4 1615.62 3.10457 1614.72 2 1614.72C0.89543 1614.72 0 1615.62 0 1616.72H4ZM0 1637.08C0 1638.18 0.89543 1639.08 2 1639.08C3.10457 1639.08 4 1638.18 4 1637.08H0ZM4 1657.43C4 1656.32 3.10457 1655.43 2 1655.43C0.89543 1655.43 0 1656.32 0 1657.43H4ZM0 1677.78C0 1678.88 0.89543 1679.78 2 1679.78C3.10457 1679.78 4 1678.88 4 1677.78H0ZM4 1698.13C4 1697.02 3.10457 1696.13 2 1696.13C0.89543 1696.13 0 1697.02 0 1698.13H4ZM0 1718.48C0 1719.58 0.89543 1720.48 2 1720.48C3.10457 1720.48 4 1719.58 4 1718.48H0ZM4 1738.83C4 1737.72 3.10457 1736.83 2 1736.83C0.89543 1736.83 0 1737.72 0 1738.83H4ZM0 1759.18C0 1760.28 0.89543 1761.18 2 1761.18C3.10457 1761.18 4 1760.28 4 1759.18H0ZM4 1779.53C4 1778.42 3.10457 1777.53 2 1777.53C0.89543 1777.53 0 1778.42 0 1779.53H4ZM0 1799.88C0 1800.98 0.89543 1801.88 2 1801.88C3.10457 1801.88 4 1800.98 4 1799.88H0ZM4 1820.23C4 1819.12 3.10457 1818.23 2 1818.23C0.89543 1818.23 0 1819.12 0 1820.23H4ZM0 1840.58C0 1841.68 0.89543 1842.58 2 1842.58C3.10457 1842.58 4 1841.68 4 1840.58H0ZM4 1860.93C4 1859.82 3.10457 1858.93 2 1858.93C0.89543 1858.93 0 1859.82 0 1860.93H4ZM0 1881.28C0 1882.38 0.89543 1883.28 2 1883.28C3.10457 1883.28 4 1882.38 4 1881.28H0ZM4 1901.62C4 1900.52 3.10457 1899.62 2 1899.62C0.89543 1899.62 0 1900.52 0 1901.62H4ZM0 1921.97C0 1923.08 0.89543 1923.97 2 1923.97C3.10457 1923.97 4 1923.08 4 1921.97H0ZM4 1942.32C4 1941.22 3.10457 1940.32 2 1940.32C0.89543 1940.32 0 1941.22 0 1942.32H4ZM0 1962.68C0 1963.78 0.89543 1964.68 2 1964.68C3.10457 1964.68 4 1963.78 4 1962.68H0ZM4 1983.03C4 1981.92 3.10457 1981.03 2 1981.03C0.89543 1981.03 0 1981.92 0 1983.03H4ZM0 2003.38C0 2004.48 0.89543 2005.38 2 2005.38C3.10457 2005.38 4 2004.48 4 2003.38H0ZM4 2023.72C4 2022.62 3.10457 2021.72 2 2021.72C0.89543 2021.72 0 2022.62 0 2023.72H4ZM0 2044.07C0 2045.18 0.89543 2046.07 2 2046.07C3.10457 2046.07 4 2045.18 4 2044.07H0ZM4 2064.42C4 2063.32 3.10457 2062.42 2 2062.42C0.89543 2062.42 0 2063.32 0 2064.42H4ZM0 2084.77C0 2085.88 0.89543 2086.77 2 2086.77C3.10457 2086.77 4 2085.88 4 2084.77H0ZM4 2105.12C4 2104.02 3.10457 2103.12 2 2103.12C0.89543 2103.12 0 2104.02 0 2105.12H4ZM0 2125.47C0 2126.58 0.89543 2127.47 2 2127.47C3.10457 2127.47 4 2126.58 4 2125.47H0ZM4 2145.82C4 2144.72 3.10457 2143.82 2 2143.82C0.89543 2143.82 0 2144.72 0 2145.82H4ZM0 0V9.86765H4V0H0ZM0 29.6029V49.3382H4V29.6029H0ZM0 69.0735V88.8088H4V69.0735H0ZM0 108.544V128.279H4V108.544H0ZM0 148.015V167.75H4V148.015H0ZM0 187.485V207.221H4V187.485H0ZM0 226.956V246.691H4V226.956H0ZM0 266.426V286.162H4V266.426H0ZM0 305.897V325.632H4V305.897H0ZM0 345.368V365.103H4V345.368H0ZM0 384.838V404.573H4V384.838H0ZM0 424.309V444.044H4V424.309H0ZM0 463.779V483.515H4V463.779H0ZM0 503.25V522.985H4V503.25H0ZM0 542.721V562.456H4V542.721H0ZM0 582.191V601.926H4V582.191H0ZM0 621.662V641.397H4V621.662H0ZM0 661.132V680.868H4V661.132H0ZM0 700.603V720.338H4V700.603H0ZM0 740.073V759.809H4V740.073H0ZM0 779.544V799.279H4V779.544H0ZM0 819.015V838.75H4V819.015H0ZM0 858.485V878.22H4V858.485H0ZM0 897.956V917.691H4V897.956H0ZM0 937.426V957.162H4V937.426H0ZM0 976.897V996.632H4V976.897H0ZM0 1016.37V1036.1H4V1016.37H0ZM0 1055.84V1075.57H4V1055.84H0ZM0 1095.31V1115.04H4V1095.31H0ZM0 1134.78V1154.51H4V1134.78H0ZM0 1174.25V1193.99H4V1174.25H0ZM0 1213.72V1233.46H4V1213.72H0ZM0 1253.19V1272.93H4V1253.19H0ZM0 1292.66V1312.4H4V1292.66H0ZM0 1332.13V1342H4V1332.13H0ZM0 1342V1352.18H4V1342H0ZM0 1372.53V1392.88H4V1372.53H0ZM0 1413.22V1433.57H4V1413.22H0ZM0 1453.93V1474.28H4V1453.93H0ZM0 1494.62V1514.97H4V1494.62H0ZM0 1535.32V1555.68H4V1535.32H0ZM0 1576.03V1596.38H4V1576.03H0ZM0 1616.72V1637.08H4V1616.72H0ZM0 1657.43V1677.78H4V1657.43H0ZM0 1698.13V1718.48H4V1698.13H0ZM0 1738.83V1759.18H4V1738.83H0ZM0 1779.53V1799.88H4V1779.53H0ZM0 1820.23V1840.58H4V1820.23H0ZM0 1860.93V1881.28H4V1860.93H0ZM0 1901.62V1921.97H4V1901.62H0ZM0 1942.32V1962.68H4V1942.32H0ZM0 1983.03V2003.38H4V1983.03H0ZM0 2023.72V2044.07H4V2023.72H0ZM0 2064.42V2084.77H4V2064.42H0ZM0 2105.12V2125.47H4V2105.12H0ZM0 2145.82V2156H4V2145.82H0Z" fill="#1ABEDD"/>
</svg>
